<svg xmlns="http://www.w3.org/2000/svg" viewBox="0 0 759.5 445.5" role="img" aria-hidden="true"><path d="M526.3,413.8L520.8,413.3L520.3,403.8L505.8,405.3L507.3,401.8L513.3,400.8L518.8,396.3L518.8,390.3L516.3,389.8L515.3,386.8L511.3,386.8L507.3,390.8L503.3,390.8L501.3,393.8L495.3,394.8L492.3,397.8L482.3,397.8L480.3,400.8L472.3,401.8L469.3,404.8L462.3,406.8L436.3,405.8L434.3,408.8L425.3,407.8L422.8,406.3L422.8,398.3L416.8,397.3L415.3,388.8L393.3,386.8L388.8,383.3L384.8,372.3L384.8,366.3L377.3,364.8L376.3,357.8L367.3,356.8L365.3,353.8L354.3,355.8L335.3,355.8L326.3,349.8L321.3,349.8L319.3,352.8L311.3,352.8L301.3,346.8L296.3,345.8L286.3,336.8L259.3,334.8L248.3,328.8L244.3,328.8L242.3,330.8L237.3,329.8L233.3,325.8L229.3,325.8L224.3,319.8L213.3,311.8L206.3,311.8L203.8,314.3L203.8,318.3L200.3,321.8L193.3,323.8L185.3,321.8L181.3,322.8L178.3,326.8L175.3,326.8L168.8,333.3L166.3,343.8L158.3,346.8L147.3,344.8L140.3,348.8L138.3,352.8L135.3,352.8L132.3,348.8L127.3,347.8L122.3,340.8L116.3,340.8L114.3,334.8L89.3,336.8L86.3,331.8L83.3,331.8L76.8,327.3L76.8,317.3L69.3,309.8L51.3,308.8L40.8,305.3L39.8,296.3L44.8,289.3L44.8,280.3L40.8,276.3L38.8,268.3L36.3,267.8L31.8,262.3L31.8,242.3L43.8,235.3L43.8,232.3L50.8,225.3L55.3,210.8L62.3,207.8L67.3,207.8L72.3,211.8L82.3,212.8L85.3,210.8L98.3,208.8L100.8,201.3L106.8,195.3L108.8,187.3L115.3,185.8L119.3,179.8L142.3,168.8L151.3,167.8L156.3,170.8L160.3,170.8L163.3,167.8L166.3,167.8L173.8,158.3L173.8,150.3L176.3,144.8L181.3,144.8L186.3,150.8L192.3,150.8L195.3,144.8L201.8,143.3L202.3,138.8L215.3,138.8L218.3,142.8L223.3,142.8L223.8,129.3L228.3,124.8L235.8,124.3L235.8,118.3L233.8,117.3L232.8,113.3L232.8,102.3L236.8,100.3L236.8,92.3L247.8,79.3L253.8,65.3L262.8,52.3L262.8,45.3L269.8,39.3L274.3,31.8L296.3,32.8L315.3,44.8L324.3,44.8L325.3,47.8L332.3,47.8L340.3,56.8L356.3,56.8L357.3,53.8L360.3,53.8L384.3,63.8L390.3,63.8L393.3,59.8L398.3,58.8L404.3,50.8L411.3,50.8L417.3,56.8L422.3,57.8L431.3,69.8L440.3,72.8L446.8,78.3L447.3,81.8L451.3,82.8L461.3,92.8L470.3,97.8L482.3,97.8L493.3,94.8L510.3,96.8L524.3,89.8L536.3,87.8L543.3,82.8L552.3,84.8L561.3,95.8L567.3,96.8L569.3,93.8L581.3,91.8L581.8,82.3L589.3,79.8L591.3,83.8L597.3,83.8L598.3,87.8L604.3,87.8L605.8,94.3L608.8,96.3L606.8,106.3L608.8,119.3L613.8,131.3L618.8,137.3L619.8,143.3L627.8,153.3L629.8,172.3L640.3,172.8L647.3,176.8L653.3,176.8L653.8,172.3L657.3,170.8L660.8,185.3L668.8,197.3L680.8,210.3L680.8,239.3L686.8,247.3L686.8,256.3L690.8,258.3L691.8,266.3L697.8,278.3L710.8,289.3L712.8,296.3L722.8,311.3L726.8,322.3L727.8,344.3L723.8,350.3L723.8,379.3L725.8,394.3L714.3,395.8L712.3,385.8L706.3,385.8L702.3,388.8L696.3,382.8L692.3,382.8L689.3,386.8L685.3,386.8L681.8,383.3L681.3,376.8L665.3,378.8L658.3,376.8L655.3,371.8L649.3,371.8L644.8,374.3L644.8,379.3L647.8,382.3L647.8,386.3L643.3,392.8L640.3,392.8L637.3,395.8L633.8,395.3L633.3,390.8L618.3,388.8L609.3,382.8L585.3,381.8L578.3,383.8L576.8,387.3L569.8,393.3L566.3,406.8L563.3,406.8L562.3,404.8L551.3,404.8L550.8,399.3L546.3,398.8L535.3,409.8L532.3,409.8L526.3,413.8Z" fill="#c5a059" fill-rule="nonzero"/></svg>
