<svg xmlns="http://www.w3.org/2000/svg" viewBox="0 0 494.4 761.4" role="img" aria-hidden="true"><path d="M203.2,728.7L189.2,728.7L184.7,726.2L184.7,722.2L188.7,714.2L194.7,711.2L194.7,707.2L191.2,704.7L182.2,703.7L179.7,699.2L179.2,691.7L160.2,694.7L159.7,689.2L154.2,683.7L144.7,684.2L141.7,677.2L142.7,664.2L140.7,662.2L140.2,656.7L135.2,656.7L130.2,660.7L124.2,660.7L121.2,667.7L114.2,669.7L111.2,666.7L106.7,666.2L106.2,659.7L101.2,658.7L94.7,653.2L93.7,643.2L96.7,640.2L96.7,630.2L101.7,621.2L100.7,608.2L99.2,605.7L94.2,604.7L85.7,593.2L86.7,584.2L83.7,580.2L70.7,577.2L73.7,565.2L68.2,564.7L67.7,561.2L74.2,560.7L74.7,555.2L69.7,554.2L68.7,544.2L66.2,543.7L62.7,539.2L63.2,533.7L70.2,528.7L74.7,528.2L73.7,514.2L76.7,509.2L75.7,499.2L79.7,492.2L80.7,483.2L83.7,479.2L83.7,461.2L87.7,453.2L87.7,449.2L81.7,446.2L78.7,425.2L71.7,406.2L71.7,400.2L75.7,398.2L75.7,386.2L79.7,379.2L80.7,370.2L86.7,363.2L86.7,358.2L82.2,357.7L78.2,360.7L73.2,360.7L70.7,358.2L65.7,349.2L65.7,342.2L62.7,341.2L62.7,337.2L59.7,335.2L59.7,330.2L46.7,323.2L41.7,311.2L32.7,307.2L32.7,300.2L33.7,295.2L39.7,288.2L39.7,285.2L46.7,280.2L46.7,275.2L48.2,273.7L57.7,275.2L57.7,267.2L61.2,253.7L71.2,252.7L87.2,254.7L88.7,264.2L92.2,267.7L96.2,267.7L110.7,260.2L111.7,248.2L118.2,240.7L124.7,239.2L122.7,227.2L124.7,225.2L125.7,210.2L129.7,203.2L130.7,195.2L134.7,193.2L140.2,171.7L145.2,170.7L149.7,182.2L154.2,184.7L159.2,184.7L166.2,194.7L170.2,194.7L172.2,192.7L182.2,193.7L184.7,191.2L187.7,178.2L192.7,175.2L195.2,164.7L211.2,160.7L217.2,162.7L218.2,165.7L223.2,165.7L226.7,163.2L229.2,156.7L237.2,157.7L239.2,160.7L244.7,160.2L244.7,144.2L246.7,142.2L249.2,123.7L252.2,123.7L252.7,127.2L255.2,128.7L283.2,131.7L282.7,123.2L288.7,115.2L288.7,111.2L278.7,91.2L277.7,81.2L272.7,73.2L271.7,63.2L264.2,60.7L262.7,56.2L267.7,49.2L267.7,46.2L271.7,42.2L271.7,37.2L274.2,33.7L300.2,32.7L302.7,40.2L306.2,42.7L319.2,46.7L326.2,46.7L329.2,50.7L343.2,54.7L354.7,63.2L353.7,72.2L356.7,76.2L356.7,86.2L359.7,89.2L360.2,94.7L367.2,95.7L370.2,92.7L376.2,91.7L381.7,97.2L379.7,102.2L381.7,134.2L378.7,137.2L377.7,149.2L390.2,148.7L393.2,157.7L400.2,157.7L404.7,148.2L404.7,143.2L407.2,140.7L412.2,140.7L417.7,152.2L418.7,160.2L429.7,163.2L432.7,178.2L425.7,183.2L422.7,189.2L422.7,197.2L428.7,202.2L431.2,210.7L442.7,213.2L442.7,221.2L445.7,224.2L445.7,228.2L444.7,234.2L441.7,238.2L441.7,244.2L438.7,246.2L438.7,250.2L442.7,254.2L446.7,263.2L455.7,269.2L456.7,275.2L446.2,285.7L439.2,285.7L437.7,287.2L438.7,298.2L443.7,300.2L443.7,305.2L437.7,317.2L437.7,329.2L431.7,341.2L425.7,348.2L426.7,375.2L422.2,380.7L417.7,382.2L417.7,386.2L421.2,390.7L424.2,390.7L429.2,397.7L434.2,398.7L439.7,404.2L440.7,416.2L438.7,417.2L437.7,427.2L444.2,428.7L452.7,436.2L453.2,438.7L457.2,438.7L458.7,442.2L461.7,443.2L461.7,456.2L457.7,457.2L457.7,462.2L453.7,467.2L453.7,471.2L459.7,475.2L455.7,481.2L455.7,505.2L453.7,507.2L455.7,521.2L445.2,528.7L440.7,535.2L440.7,545.2L443.7,548.2L443.7,554.2L440.7,559.2L442.7,571.2L439.7,573.2L439.7,586.2L431.7,595.2L426.7,608.2L420.2,608.7L414.7,613.2L412.7,629.2L409.7,631.2L408.2,643.7L396.2,651.7L388.2,652.7L383.2,656.7L377.2,656.7L375.7,661.2L370.2,666.7L366.2,666.7L362.2,670.7L351.2,669.7L347.2,674.7L338.2,679.7L320.2,677.7L309.2,671.7L302.2,670.7L298.2,668.7L296.2,664.7L292.2,664.7L289.7,662.2L289.2,657.7L279.2,657.7L278.2,659.7L274.2,660.7L269.2,660.7L268.2,658.7L259.2,659.7L249.7,652.2L249.2,648.7L245.2,648.7L239.2,656.7L235.7,657.2L235.7,665.2L243.2,669.7L257.2,667.7L257.7,677.2L246.7,684.2L246.7,689.2L243.2,693.7L238.2,693.7L235.7,696.2L237.7,710.2L234.2,715.7L218.2,723.7L205.2,724.7L203.2,728.7Z" fill="#c5a059" fill-rule="nonzero"/></svg>
